<svg height="614" viewBox="0 0 614 614" width="614" xmlns="http://www.w3.org/2000/svg"><g fill="none" stroke-width="2"><g transform="translate(1 1)"><path d="m376 0v3.3c0 38.76-31.42 70.17-70.17 70.17-38.76 0-70.17-31.42-70.17-70.17 0-1.14 0-2.22 0-3.3h-235.66v612h612v-612z" fill="#6c71c4" stroke="#000"/><path d="m142.16 329.81h40.56l27.69 147.47h.5l33.28-147.47h37.94l30.06 149.28h.59l31.56-149.28h39.78l-51.69 216.69h-40.25l-29.81-147.47h-.78l-31.91 147.47h-41zm287.69 0h63.94l63.5 216.69h-41.84l-13.81-48.22h-72.84l-10.66 48.22h-40.75zm24.34 53.41-17.69 79.5h55.06l-20.31-79.5z" fill="#859900" stroke="#647141"/></g><path d="m43.5727099 290.323824-17.5727099-17.663189v-75.888667l.2337971-92.541507c38.6684825-29.2419944 0 0 38.557299-29.2419944-.2182107-6.3955709-.2182107-10.8145501-.2182107-18.9780763l16.9534074-.0103903h17.0858925v19.0013505h98.4192287 93.545859l33.856418 29.2419425.436422 16.892231.062346 75.86077.067541 75.860873-17.66467 17.571339-17.664151 17.571494h-114.264958-114.264438l-17.5727099-17.663292zm159.0137241-36.897385c25.360231-12.390909 39.763172-42.226395 34.454419-71.3715-2.786861-15.300703-7.802069-24.745452-19.033162-35.845891-13.091599-12.93832-28.391282-18.289201-48.912952-17.106789-25.96239 1.496613-44.183497 13.956461-55.203653 37.7511-7.186404 15.517184-7.588535 38.864522-.928434 53.835853 15.449832 34.7253 55.564739 49.378169 89.622743 32.737227z" fill="#859900" stroke="#647141"/></g></svg>