<svg height="614" viewBox="0 0 614 614" width="614" xmlns="http://www.w3.org/2000/svg"><g fill="none"><g transform="translate(1 1)"><path d="m385.724039 10c-3.403853 41.144112-37.874107 73.47-79.894039 73.47-42.023119 0-76.490256-32.3288155-79.894025-73.47h-215.935975v592h592v-592z" stroke="#6c71c4" stroke-width="20"/><path d="m142.16 329.81h40.56l27.69 147.47h.5l33.28-147.47h37.94l30.06 149.28h.59l31.56-149.28h39.78l-51.69 216.69h-40.25l-29.81-147.47h-.78l-31.91 147.47h-41zm287.69 0h63.94l63.5 216.69h-41.84l-13.81-48.22h-72.84l-10.66 48.22h-40.75zm24.34 53.41-17.69 79.5h55.06l-20.31-79.5z" fill="#859900" stroke="#647141" stroke-width="2"/></g><path d="m60.5148211 300.375977-16.5148211-16.611808v-71.371485l.2197224-87.033084c36.3406139-27.5013993 0 0 36.2361237-27.5013993-.2050742-6.0148822-.2050742-10.1708268-.2050742-17.8484289l15.932801-.0097718h16.0573101v17.8703178h92.494326 87.914335l31.81824 27.5013502.410148 15.886741.058593 71.345248.063475 71.345345-16.601245 16.525426-16.600757 16.525572h-107.386131-107.3856428l-16.5148211-16.611906zm149.1013749-33.856364c23.815519-11.697696 37.341164-39.864026 32.355772-67.378599-2.617112-14.4447-7.326839-23.36106-17.873837-33.840481-12.294178-12.214481-26.661944-17.266006-45.933622-16.149745-24.380998 1.412885-41.492242 13.175664-51.841152 35.639104-6.748673 14.64907-7.12631 36.690233-.871882 50.823988 14.50877 32.782583 52.180244 46.615692 84.163745 30.905733z" fill="#859900" stroke="#647141" stroke-width="2"/></g></svg>